<?xml version="1.0" standalone="no"?><!DOCTYPE svg PUBLIC "-//W3C//DTD SVG 1.1//EN" "http://www.w3.org/Graphics/SVG/1.1/DTD/svg11.dtd"><svg t="1566531507340" class="icon" viewBox="0 0 1024 1024" version="1.1" xmlns="http://www.w3.org/2000/svg" p-id="1064" xmlns:xlink="http://www.w3.org/1999/xlink" width="200" height="200"><defs><style type="text/css"></style></defs><path d="M780.8 710.4c-32 0-64 25.6-64 64 0 32 25.6 64 64 64 32 0 64-25.6 64-64 0-32-32-64-64-64z" p-id="1065"></path><path d="M1004.8 819.2l-25.6-25.6v-44.8l25.6-25.6c12.8-6.4 19.2-25.6 6.4-44.8l-44.8-70.4c-6.4-6.4-6.4-12.8-19.2-12.8h-25.6l-32 12.8c-12.8-6.4-25.6-19.2-44.8-25.6l-6.4-38.4c0-12.8-12.8-25.6-25.6-25.6h-83.2c-12.8 0-25.6 12.8-25.6 25.6l-6.4 38.4c-12.8 6.4-25.6 12.8-44.8 25.6l-25.6-6.4c-12.8-6.4-32 0-38.4 6.4l-44.8 70.4c-6.4 12.8-6.4 32 6.4 44.8l25.6 25.6v44.8l-25.6 25.6c-12.8 6.4-19.2 25.6-6.4 44.8l44.8 70.4c6.4 6.4 6.4 12.8 19.2 12.8h25.6l32-12.8c12.8 6.4 25.6 19.2 44.8 25.6l6.4 38.4c0 12.8 12.8 25.6 25.6 25.6h83.2c12.8 0 25.6-12.8 25.6-25.6l6.4-38.4c12.8-6.4 25.6-12.8 44.8-25.6l32 12.8c12.8 6.4 32 0 38.4-6.4l44.8-70.4c6.4-6.4 6.4-12.8 6.4-25.6-12.8-12.8-12.8-25.6-19.2-25.6z m-224 57.6c-57.6 0-102.4-44.8-102.4-102.4 0-57.6 44.8-102.4 102.4-102.4 57.6 0 102.4 44.8 102.4 102.4 0 57.6-44.8 102.4-102.4 102.4zM787.2 0H57.6C25.6 0 0 25.6 0 57.6v160c0 32 25.6 57.6 57.6 57.6h729.6c32 0 57.6-25.6 57.6-57.6V57.6c0-32-25.6-57.6-57.6-57.6zM192 185.6H128c-12.8 0-19.2-6.4-19.2-19.2v-64c0-12.8 6.4-19.2 19.2-19.2h64c12.8 0 19.2 6.4 19.2 19.2v64c0 12.8-6.4 19.2-19.2 19.2z" p-id="1066"></path><path d="M787.2 377.6H57.6c-32 0-57.6 25.6-57.6 57.6v160c0 32 25.6 57.6 57.6 57.6h428.8c12.8-32 25.6-64 38.4-83.2 32-51.2 108.8-38.4 108.8-38.4 38.4-108.8 204.8-70.4 204.8-70.4v-25.6c6.4-32-19.2-57.6-51.2-57.6zM192 556.8H128c-12.8 0-19.2-6.4-19.2-19.2v-64c0-12.8 6.4-19.2 19.2-19.2h64c12.8 0 19.2 6.4 19.2 19.2v64c0 12.8-6.4 19.2-19.2 19.2zM499.2 915.2c-51.2-89.6 0-147.2 0-147.2-6.4-6.4-12.8-12.8-19.2-25.6H57.6c-32 0-57.6 25.6-57.6 57.6V960c0 32 25.6 57.6 57.6 57.6h524.8c-32-12.8-51.2-38.4-83.2-102.4z m-307.2 19.2H128c-12.8 0-19.2-6.4-19.2-19.2v-64c0-12.8 6.4-19.2 19.2-19.2h64c12.8 0 19.2 6.4 19.2 19.2v64c0 6.4-6.4 19.2-19.2 19.2z" p-id="1067"></path></svg>