<?xml version="1.0" standalone="no"?><!DOCTYPE svg PUBLIC "-//W3C//DTD SVG 1.1//EN" "http://www.w3.org/Graphics/SVG/1.1/DTD/svg11.dtd"><svg t="1566531511097" class="icon" viewBox="0 0 1024 1024" version="1.1" xmlns="http://www.w3.org/2000/svg" p-id="1192" xmlns:xlink="http://www.w3.org/1999/xlink" width="200" height="200"><defs><style type="text/css"></style></defs><path d="M527.900621 1017.639752H508.819876c-279.850932 0-508.819876-228.968944-508.819876-508.819876s228.968944-508.819876 508.819876-508.819876 508.819876 228.968944 508.819876 508.819876v19.080745c-19.080745-19.080745-44.521739-38.161491-69.962733-50.881987-6.360248-50.881988-19.080745-101.763975-38.161491-146.285715-19.080745-6.360248-19.080745 0-25.440994 12.720497 0 19.080745-6.360248 38.161491-12.720497 63.602485-6.360248 19.080745-25.440994 25.440994-50.881987 31.801242h-38.161491c-69.962733 0-139.925466 19.080745-197.167702 63.602484-25.440994-12.720497-57.242236-25.440994-82.68323-31.801242-31.801242 0-57.242236-12.720497-82.683229-38.161491-25.440994-19.080745-6.360248-50.881988 12.720496-69.962733 12.720497-6.360248 25.440994-19.080745 38.161491-31.801242 12.720497-6.360248 25.440994-19.080745 38.161491-25.440994 12.720497-6.360248-19.080745-31.801242-25.440994-50.881987-19.080745-31.801242-50.881988-38.161491-76.322981-25.440994-25.440994 6.360248-38.161491 25.440994-38.161491 50.881988 0 19.080745-6.360248 38.161491-19.080745 44.521739-12.720497 19.080745-6.360248 57.242236-25.440994 57.242236-19.080745 6.360248-12.720497-12.720497-31.801242-19.080746-19.080745 0-25.440994-25.440994-19.080746-44.521739 6.360248-19.080745-6.360248-31.801242-19.080745-25.440993-12.720497 6.360248-12.720497 12.720497-12.720497 44.521739-6.360248 31.801242-44.521739 38.161491-76.322981 38.16149s-19.080745-38.161491-6.360249-44.521739c6.360248-6.360248 6.360248-12.720497 6.360249-19.080745l-6.360249-6.360249h-12.720497c-12.720497 6.360248-19.080745 12.720497-25.440994 19.080746-31.801242 63.602484-50.881988 133.565217-50.881987 190.807453v38.161491c0 12.720497 12.720497 12.720497 25.440994 0s0-38.161491 38.16149-38.161491c38.161491 6.360248 76.322981 50.881988 95.403727 63.602485 19.080745 0 101.763975 12.720497 69.962733 69.962733-19.080745 31.801242-44.521739 63.602484-69.962733 95.403726-19.080745 12.720497-19.080745 44.521739-12.720497 63.602485 19.080745 44.521739 44.521739 76.322981 89.043478 101.763975l6.360249 6.360248c50.881988 25.440994 108.124224 44.521739 165.36646 44.52174 12.720497 12.720497 31.801242 38.161491 50.881987 57.242236z" p-id="1193"></path><path d="M718.708075 572.42236l-76.322982 44.521739-69.962733 38.161491v248.04969l69.962733 38.16149 82.68323 44.521739 69.962733 38.161491 69.962733-38.161491 82.68323-44.521739 69.962733-38.16149v-248.04969l-69.962733-38.161491-82.68323-44.521739-69.962733-38.16149-76.322981 38.16149z m-6.360249 248.04969v-89.043479l82.68323-44.521739 82.68323 44.521739v89.043479l-82.68323 44.521739-82.68323-44.521739z" p-id="1194"></path></svg>