<?xml version="1.0" standalone="no"?><!DOCTYPE svg PUBLIC "-//W3C//DTD SVG 1.1//EN" "http://www.w3.org/Graphics/SVG/1.1/DTD/svg11.dtd"><svg t="1566531503383" class="icon" viewBox="0 0 1024 1024" version="1.1" xmlns="http://www.w3.org/2000/svg" p-id="937" xmlns:xlink="http://www.w3.org/1999/xlink" width="200" height="200"><defs><style type="text/css"></style></defs><path d="M652.8 569.6c-57.6 57.6-51.2 160 6.4 224 12.8 12.8 6.4 25.6 0 32l-12.8 12.8c-6.4 12.8-12.8 32-6.4 44.8 6.4 19.2 25.6 19.2 38.4 19.2h185.6c19.2 0 32-6.4 38.4-19.2 6.4-19.2 6.4-32-6.4-44.8l-12.8-12.8c-12.8-12.8-12.8-19.2 0-32 6.4-12.8 19.2-19.2 25.6-32 44.8-64 25.6-153.6-32-204.8-76.8-44.8-166.4-38.4-224 12.8zM1017.6 979.2c0-32-12.8-38.4-44.8-38.4H556.8c-32 0-44.8 12.8-44.8 38.4v38.4h512l-6.4-38.4z" p-id="938"></path><path d="M569.6 883.2c0-25.6 6.4-51.2 19.2-70.4l6.4-6.4c-25.6-38.4-44.8-83.2-44.8-128 0-57.6 19.2-102.4 51.2-147.2 38.4-44.8 96-64 160-64 25.6 0 64 6.4 89.6 12.8V51.2c0-25.6-25.6-51.2-51.2-51.2H51.2C25.6 0 0 19.2 0 51.2v928c0 25.6 25.6 44.8 51.2 44.8h390.4v-51.2c0-25.6 12.8-51.2 25.6-70.4 19.2-19.2 44.8-25.6 76.8-25.6 6.4 6.4 12.8 6.4 25.6 6.4zM160 230.4c0-12.8 12.8-25.6 32-25.6h409.6c19.2 0 32 12.8 32 25.6s-25.6 25.6-38.4 25.6H192c-19.2 0-32-12.8-32-25.6z m313.6 224c0 12.8-12.8 25.6-32 25.6H192c-19.2 0-32-12.8-32-25.6s12.8-25.6 32-25.6h249.6c19.2 0 32 12.8 32 25.6z m0-115.2c0 12.8-12.8 25.6-32 25.6H192c-19.2 0-32-12.8-32-25.6s12.8-25.6 32-25.6h249.6c19.2 0 32 12.8 32 25.6z" p-id="939"></path></svg>