<?xml version="1.0" standalone="no"?><!DOCTYPE svg PUBLIC "-//W3C//DTD SVG 1.1//EN" "http://www.w3.org/Graphics/SVG/1.1/DTD/svg11.dtd"><svg t="1566531494700" class="icon" viewBox="0 0 1024 1024" version="1.1" xmlns="http://www.w3.org/2000/svg" p-id="811" xmlns:xlink="http://www.w3.org/1999/xlink" width="200" height="200"><defs><style type="text/css"></style></defs><path d="M153.6 249.6c0 140.8 108.8 249.6 249.6 249.6s249.6-108.8 249.6-249.6C646.4 108.8 537.6 0 403.2 0S153.6 108.8 153.6 249.6zM486.4 556.8H313.6C140.8 556.8 0 716.8 0 908.8c0 64 44.8 115.2 102.4 115.2h595.2c57.6 0 102.4-51.2 102.4-115.2 0-192-140.8-352-313.6-352zM1004.8 249.6h-256c-12.8 0-19.2-6.4-19.2-19.2v-57.6c0-12.8 6.4-19.2 19.2-19.2h256c12.8 0 19.2 6.4 19.2 19.2v57.6c0 12.8-6.4 19.2-19.2 19.2zM1004.8 441.6h-294.4c-12.8 0-19.2-6.4-19.2-19.2v-57.6c0-12.8 6.4-19.2 19.2-19.2h294.4c12.8 0 19.2 6.4 19.2 19.2v57.6c0 6.4-6.4 19.2-19.2 19.2zM1011.2 627.2h-198.4c-6.4 0-12.8-6.4-12.8-12.8v-64c0-6.4 6.4-12.8 12.8-12.8h198.4c6.4 0 12.8 6.4 12.8 12.8v64c0 6.4-6.4 12.8-12.8 12.8z" p-id="812"></path></svg>